<svg width="21" height="20" viewBox="0 0 21 20" fill="none" xmlns="http://www.w3.org/2000/svg">
<path d="M18.6713 8.36792H18V8.33334H10.5V11.6667H15.2096C14.5225 13.6071 12.6763 15 10.5 15C7.73876 15 5.50001 12.7613 5.50001 10C5.50001 7.23876 7.73876 5.00001 10.5 5.00001C11.7746 5.00001 12.9342 5.48084 13.8171 6.26625L16.1742 3.90917C14.6858 2.52209 12.695 1.66667 10.5 1.66667C5.89792 1.66667 2.16667 5.39792 2.16667 10C2.16667 14.6021 5.89792 18.3333 10.5 18.3333C15.1021 18.3333 18.8333 14.6021 18.8333 10C18.8333 9.44126 18.7758 8.89584 18.6713 8.36792Z" fill="#FFC107"/>
<path d="M3.12749 6.12125L5.86541 8.12917C6.60624 6.295 8.40041 5 10.5 5C11.7746 5 12.9342 5.48084 13.8171 6.26625L16.1742 3.90917C14.6858 2.52209 12.695 1.66667 10.5 1.66667C7.29916 1.66667 4.52333 3.47375 3.12749 6.12125Z" fill="#FF3D00"/>
<path d="M10.5 18.3333C12.6525 18.3333 14.6083 17.5096 16.0871 16.17L13.5079 13.9875C12.6431 14.6452 11.5864 15.0009 10.5 15C8.3325 15 6.49209 13.6179 5.79875 11.6892L3.08125 13.7829C4.46042 16.4817 7.26125 18.3333 10.5 18.3333Z" fill="#4CAF50"/>
<path d="M18.6713 8.3679H18V8.33331H10.5V11.6666H15.2096C14.8809 12.5902 14.2889 13.3971 13.5067 13.9879L13.5079 13.9871L16.0871 16.1696C15.9046 16.3354 18.8333 14.1666 18.8333 9.99998C18.8333 9.44123 18.7758 8.89581 18.6713 8.3679Z" fill="#1976D2"/>
</svg>
